<svg width="1440" height="943" viewBox="0 0 1440 943" fill="none" xmlns="http://www.w3.org/2000/svg">
<g clip-path="url(#clip0_30_1128)">
<path d="M400 0H0V400H400V0Z" fill="#151515"/>
<path d="M463.5 440L365.5 368.5L260 330L154.5 269L20 299.5L147.5 382L63.25 439.75L20 299.5L-98.5 246.5L51 191L-15.5 114.5L63.25 39.75L-34.5 -31.5M384.5 114.5L518.5 130.45L384.5 114.5Z" stroke="#2B2B2B" stroke-width="0.5"/>
<path d="M185 452.5L147.5 382M-15.5 114.5L118.5 130.5L195 191L301.5 246.5L154.25 268.75L50.75 190.75L-15.5 114.5Z" stroke="#2B2B2B" stroke-width="0.5"/>
<path d="M260 330L289 421L365.5 368.5L420 299.5L301.5 246.5L260 330ZM260 330L147.5 382L154.5 269L195 191L269.5 134.5L384.5 114.5L288.75 20.75L185 52.5L147.5 -18L63.25 39.75L118.5 130.5L51 191L20 299.5L-34.5 368.5L63.5 440" stroke="#2B2B2B" stroke-width="0.5"/>
<path d="M195 191H51M260 -70L289.25 21.25L365.5 -31.5L260 -70ZM301.5 246.5L269.5 134.5L118.5 130.5L185 52.5L301.5 246.5ZM451 191L269.5 134.5L451 191Z" stroke="#2B2B2B" stroke-width="0.5"/>
<path d="M51 191L-130.5 134.5M-111 21L63.25 39.75L185 52.5L269.5 134.5L288.75 20.75L463.5 40L384.5 114.5L451 191L301.5 246.5L365.5 368.5L-111 21ZM147.5 -18L288.75 20.75L147.5 -18ZM289 421L147.5 382L289 421ZM20 -100.5L63.5 40L20 -100.5Z" stroke="#2B2B2B" stroke-width="0.5"/>
<path d="M384.5 117C385.881 117 387 115.881 387 114.5C387 113.119 385.881 112 384.5 112C383.119 112 382 113.119 382 114.5C382 115.881 383.119 117 384.5 117Z" fill="#2B2B2B"/>
<path d="M269.5 137C270.881 137 272 135.881 272 134.5C272 133.119 270.881 132 269.5 132C268.119 132 267 133.119 267 134.5C267 135.881 268.119 137 269.5 137Z" fill="#2B2B2B"/>
<path d="M301.5 249C302.881 249 304 247.881 304 246.5C304 245.119 302.881 244 301.5 244C300.119 244 299 245.119 299 246.5C299 247.881 300.119 249 301.5 249Z" fill="#2B2B2B"/>
<path d="M365.5 371C366.881 371 368 369.881 368 368.5C368 367.119 366.881 366 365.5 366C364.119 366 363 367.119 363 368.5C363 369.881 364.119 371 365.5 371Z" fill="#2B2B2B"/>
<path d="M260 332.5C261.381 332.5 262.5 331.381 262.5 330C262.5 328.619 261.381 327.5 260 327.5C258.619 327.5 257.5 328.619 257.5 330C257.5 331.381 258.619 332.5 260 332.5Z" fill="#2B2B2B"/>
<path d="M154.5 271.5C155.881 271.5 157 270.381 157 269C157 267.619 155.881 266.5 154.5 266.5C153.119 266.5 152 267.619 152 269C152 270.381 153.119 271.5 154.5 271.5Z" fill="#2B2B2B"/>
<path d="M147.5 384.5C148.881 384.5 150 383.381 150 382C150 380.619 148.881 379.5 147.5 379.5C146.119 379.5 145 380.619 145 382C145 383.381 146.119 384.5 147.5 384.5Z" fill="#2B2B2B"/>
<path d="M20 302C21.3807 302 22.5 300.881 22.5 299.5C22.5 298.119 21.3807 297 20 297C18.6193 297 17.5 298.119 17.5 299.5C17.5 300.881 18.6193 302 20 302Z" fill="#2B2B2B"/>
<path d="M51 193.5C52.3807 193.5 53.5 192.381 53.5 191C53.5 189.619 52.3807 188.5 51 188.5C49.6193 188.5 48.5 189.619 48.5 191C48.5 192.381 49.6193 193.5 51 193.5Z" fill="#2B2B2B"/>
<path d="M63.5 42.5C64.8807 42.5 66 41.3807 66 40C66 38.6193 64.8807 37.5 63.5 37.5C62.1193 37.5 61 38.6193 61 40C61 41.3807 62.1193 42.5 63.5 42.5Z" fill="#2B2B2B"/>
<path d="M185 55C186.381 55 187.5 53.8807 187.5 52.5C187.5 51.1193 186.381 50 185 50C183.619 50 182.5 51.1193 182.5 52.5C182.5 53.8807 183.619 55 185 55Z" fill="#2B2B2B"/>
<path d="M289 23.5C290.381 23.5 291.5 22.3807 291.5 21C291.5 19.6193 290.381 18.5 289 18.5C287.619 18.5 286.5 19.6193 286.5 21C286.5 22.3807 287.619 23.5 289 23.5Z" fill="#2B2B2B"/>
<path d="M118.5 133C119.881 133 121 131.881 121 130.5C121 129.119 119.881 128 118.5 128C117.119 128 116 129.119 116 130.5C116 131.881 117.119 133 118.5 133Z" fill="#2B2B2B"/>
<path d="M195 193.5C196.381 193.5 197.5 192.381 197.5 191C197.5 189.619 196.381 188.5 195 188.5C193.619 188.5 192.5 189.619 192.5 191C192.5 192.381 193.619 193.5 195 193.5Z" fill="#2B2B2B"/>
</g>
<g clip-path="url(#clip1_30_1128)">
<path d="M400 400H0V800H400V400Z" fill="#151515"/>
<path d="M463.5 840L365.5 768.5L260 730L154.5 669L20 699.5L147.5 782L63.25 839.75L20 699.5L-98.5 646.5L51 591L-15.5 514.5L63.25 439.75L-34.5 368.5M384.5 514.5L518.5 530.45L384.5 514.5Z" stroke="#2B2B2B" stroke-width="0.5"/>
<path d="M185 852.5L147.5 782M-15.5 514.5L118.5 530.5L195 591L301.5 646.5L154.25 668.75L50.75 590.75L-15.5 514.5Z" stroke="#2B2B2B" stroke-width="0.5"/>
<path d="M260 730L289 821L365.5 768.5L420 699.5L301.5 646.5L260 730ZM260 730L147.5 782L154.5 669L195 591L269.5 534.5L384.5 514.5L288.75 420.75L185 452.5L147.5 382L63.25 439.75L118.5 530.5L51 591L20 699.5L-34.5 768.5L63.5 840" stroke="#2B2B2B" stroke-width="0.5"/>
<path d="M195 591H51M260 330L289.25 421.25L365.5 368.5L260 330ZM301.5 646.5L269.5 534.5L118.5 530.5L185 452.5L301.5 646.5ZM451 591L269.5 534.5L451 591Z" stroke="#2B2B2B" stroke-width="0.5"/>
<path d="M51 591L-130.5 534.5M-111 421L63.25 439.75L185 452.5L269.5 534.5L288.75 420.75L463.5 440L384.5 514.5L451 591L301.5 646.5L365.5 768.5L-111 421ZM147.5 382L288.75 420.75L147.5 382ZM289 821L147.5 782L289 821ZM20 299.5L63.5 440L20 299.5Z" stroke="#2B2B2B" stroke-width="0.5"/>
<path d="M384.5 517C385.881 517 387 515.881 387 514.5C387 513.119 385.881 512 384.5 512C383.119 512 382 513.119 382 514.5C382 515.881 383.119 517 384.5 517Z" fill="#2B2B2B"/>
<path d="M269.5 537C270.881 537 272 535.881 272 534.5C272 533.119 270.881 532 269.5 532C268.119 532 267 533.119 267 534.5C267 535.881 268.119 537 269.5 537Z" fill="#2B2B2B"/>
<path d="M301.5 649C302.881 649 304 647.881 304 646.5C304 645.119 302.881 644 301.5 644C300.119 644 299 645.119 299 646.5C299 647.881 300.119 649 301.5 649Z" fill="#2B2B2B"/>
<path d="M365.5 771C366.881 771 368 769.881 368 768.5C368 767.119 366.881 766 365.5 766C364.119 766 363 767.119 363 768.5C363 769.881 364.119 771 365.5 771Z" fill="#2B2B2B"/>
<path d="M260 732.5C261.381 732.5 262.5 731.381 262.5 730C262.5 728.619 261.381 727.5 260 727.5C258.619 727.5 257.5 728.619 257.5 730C257.5 731.381 258.619 732.5 260 732.5Z" fill="#2B2B2B"/>
<path d="M154.5 671.5C155.881 671.5 157 670.381 157 669C157 667.619 155.881 666.5 154.5 666.5C153.119 666.5 152 667.619 152 669C152 670.381 153.119 671.5 154.5 671.5Z" fill="#2B2B2B"/>
<path d="M147.5 784.5C148.881 784.5 150 783.381 150 782C150 780.619 148.881 779.5 147.5 779.5C146.119 779.5 145 780.619 145 782C145 783.381 146.119 784.5 147.5 784.5Z" fill="#2B2B2B"/>
<path d="M20 702C21.3807 702 22.5 700.881 22.5 699.5C22.5 698.119 21.3807 697 20 697C18.6193 697 17.5 698.119 17.5 699.5C17.5 700.881 18.6193 702 20 702Z" fill="#2B2B2B"/>
<path d="M51 593.5C52.3807 593.5 53.5 592.381 53.5 591C53.5 589.619 52.3807 588.5 51 588.5C49.6193 588.5 48.5 589.619 48.5 591C48.5 592.381 49.6193 593.5 51 593.5Z" fill="#2B2B2B"/>
<path d="M63.5 442.5C64.8807 442.5 66 441.381 66 440C66 438.619 64.8807 437.5 63.5 437.5C62.1193 437.5 61 438.619 61 440C61 441.381 62.1193 442.5 63.5 442.5Z" fill="#2B2B2B"/>
<path d="M185 455C186.381 455 187.5 453.881 187.5 452.5C187.5 451.119 186.381 450 185 450C183.619 450 182.5 451.119 182.5 452.5C182.5 453.881 183.619 455 185 455Z" fill="#2B2B2B"/>
<path d="M289 423.5C290.381 423.5 291.5 422.381 291.5 421C291.5 419.619 290.381 418.5 289 418.5C287.619 418.5 286.5 419.619 286.5 421C286.5 422.381 287.619 423.5 289 423.5Z" fill="#2B2B2B"/>
<path d="M118.5 533C119.881 533 121 531.881 121 530.5C121 529.119 119.881 528 118.5 528C117.119 528 116 529.119 116 530.5C116 531.881 117.119 533 118.5 533Z" fill="#2B2B2B"/>
<path d="M195 593.5C196.381 593.5 197.5 592.381 197.5 591C197.5 589.619 196.381 588.5 195 588.5C193.619 588.5 192.5 589.619 192.5 591C192.5 592.381 193.619 593.5 195 593.5Z" fill="#2B2B2B"/>
</g>
<g clip-path="url(#clip2_30_1128)">
<path d="M800 0H400V400H800V0Z" fill="#151515"/>
<path d="M863.5 440L765.5 368.5L660 330L554.5 269L420 299.5L547.5 382L463.25 439.75L420 299.5L301.5 246.5L451 191L384.5 114.5L463.25 39.75L365.5 -31.5M784.5 114.5L918.5 130.45L784.5 114.5Z" stroke="#2B2B2B" stroke-width="0.5"/>
<path d="M585 452.5L547.5 382M384.5 114.5L518.5 130.5L595 191L701.5 246.5L554.25 268.75L450.75 190.75L384.5 114.5Z" stroke="#2B2B2B" stroke-width="0.5"/>
<path d="M660 330L689 421L765.5 368.5L820 299.5L701.5 246.5L660 330ZM660 330L547.5 382L554.5 269L595 191L669.5 134.5L784.5 114.5L688.75 20.75L585 52.5L547.5 -18L463.25 39.75L518.5 130.5L451 191L420 299.5L365.5 368.5L463.5 440" stroke="#2B2B2B" stroke-width="0.5"/>
<path d="M595 191H451M660 -70L689.25 21.25L765.5 -31.5L660 -70ZM701.5 246.5L669.5 134.5L518.5 130.5L585 52.5L701.5 246.5ZM851 191L669.5 134.5L851 191Z" stroke="#2B2B2B" stroke-width="0.5"/>
<path d="M451 191L269.5 134.5M289 21L463.25 39.75L585 52.5L669.5 134.5L688.75 20.75L863.5 40L784.5 114.5L851 191L701.5 246.5L765.5 368.5L289 21ZM547.5 -18L688.75 20.75L547.5 -18ZM689 421L547.5 382L689 421ZM420 -100.5L463.5 40L420 -100.5Z" stroke="#2B2B2B" stroke-width="0.5"/>
<path d="M784.5 117C785.881 117 787 115.881 787 114.5C787 113.119 785.881 112 784.5 112C783.119 112 782 113.119 782 114.5C782 115.881 783.119 117 784.5 117Z" fill="#2B2B2B"/>
<path d="M669.5 137C670.881 137 672 135.881 672 134.5C672 133.119 670.881 132 669.5 132C668.119 132 667 133.119 667 134.5C667 135.881 668.119 137 669.5 137Z" fill="#2B2B2B"/>
<path d="M701.5 249C702.881 249 704 247.881 704 246.5C704 245.119 702.881 244 701.5 244C700.119 244 699 245.119 699 246.5C699 247.881 700.119 249 701.5 249Z" fill="#2B2B2B"/>
<path d="M765.5 371C766.881 371 768 369.881 768 368.5C768 367.119 766.881 366 765.5 366C764.119 366 763 367.119 763 368.5C763 369.881 764.119 371 765.5 371Z" fill="#2B2B2B"/>
<path d="M660 332.5C661.381 332.5 662.5 331.381 662.5 330C662.5 328.619 661.381 327.5 660 327.5C658.619 327.5 657.5 328.619 657.5 330C657.5 331.381 658.619 332.5 660 332.5Z" fill="#2B2B2B"/>
<path d="M554.5 271.5C555.881 271.5 557 270.381 557 269C557 267.619 555.881 266.5 554.5 266.5C553.119 266.5 552 267.619 552 269C552 270.381 553.119 271.5 554.5 271.5Z" fill="#2B2B2B"/>
<path d="M547.5 384.5C548.881 384.5 550 383.381 550 382C550 380.619 548.881 379.5 547.5 379.5C546.119 379.5 545 380.619 545 382C545 383.381 546.119 384.5 547.5 384.5Z" fill="#2B2B2B"/>
<path d="M420 302C421.381 302 422.5 300.881 422.5 299.5C422.5 298.119 421.381 297 420 297C418.619 297 417.5 298.119 417.5 299.5C417.5 300.881 418.619 302 420 302Z" fill="#2B2B2B"/>
<path d="M451 193.5C452.381 193.5 453.5 192.381 453.5 191C453.5 189.619 452.381 188.5 451 188.5C449.619 188.5 448.5 189.619 448.5 191C448.5 192.381 449.619 193.5 451 193.5Z" fill="#2B2B2B"/>
<path d="M463.5 42.5C464.881 42.5 466 41.3807 466 40C466 38.6193 464.881 37.5 463.5 37.5C462.119 37.5 461 38.6193 461 40C461 41.3807 462.119 42.5 463.5 42.5Z" fill="#2B2B2B"/>
<path d="M585 55C586.381 55 587.5 53.8807 587.5 52.5C587.5 51.1193 586.381 50 585 50C583.619 50 582.5 51.1193 582.5 52.5C582.5 53.8807 583.619 55 585 55Z" fill="#2B2B2B"/>
<path d="M689 23.5C690.381 23.5 691.5 22.3807 691.5 21C691.5 19.6193 690.381 18.5 689 18.5C687.619 18.5 686.5 19.6193 686.5 21C686.5 22.3807 687.619 23.5 689 23.5Z" fill="#2B2B2B"/>
<path d="M518.5 133C519.881 133 521 131.881 521 130.5C521 129.119 519.881 128 518.5 128C517.119 128 516 129.119 516 130.5C516 131.881 517.119 133 518.5 133Z" fill="#2B2B2B"/>
<path d="M595 193.5C596.381 193.5 597.5 192.381 597.5 191C597.5 189.619 596.381 188.5 595 188.5C593.619 188.5 592.5 189.619 592.5 191C592.5 192.381 593.619 193.5 595 193.5Z" fill="#2B2B2B"/>
</g>
<g clip-path="url(#clip3_30_1128)">
<path d="M800 400H400V800H800V400Z" fill="#151515"/>
<path d="M863.5 840L765.5 768.5L660 730L554.5 669L420 699.5L547.5 782L463.25 839.75L420 699.5L301.5 646.5L451 591L384.5 514.5L463.25 439.75L365.5 368.5M784.5 514.5L918.5 530.45L784.5 514.5Z" stroke="#2B2B2B" stroke-width="0.5"/>
<path d="M585 852.5L547.5 782M384.5 514.5L518.5 530.5L595 591L701.5 646.5L554.25 668.75L450.75 590.75L384.5 514.5Z" stroke="#2B2B2B" stroke-width="0.5"/>
<path d="M660 730L689 821L765.5 768.5L820 699.5L701.5 646.5L660 730ZM660 730L547.5 782L554.5 669L595 591L669.5 534.5L784.5 514.5L688.75 420.75L585 452.5L547.5 382L463.25 439.75L518.5 530.5L451 591L420 699.5L365.5 768.5L463.5 840" stroke="#2B2B2B" stroke-width="0.5"/>
<path d="M595 591H451M660 330L689.25 421.25L765.5 368.5L660 330ZM701.5 646.5L669.5 534.5L518.5 530.5L585 452.5L701.5 646.5ZM851 591L669.5 534.5L851 591Z" stroke="#2B2B2B" stroke-width="0.5"/>
<path d="M451 591L269.5 534.5M289 421L463.25 439.75L585 452.5L669.5 534.5L688.75 420.75L863.5 440L784.5 514.5L851 591L701.5 646.5L765.5 768.5L289 421ZM547.5 382L688.75 420.75L547.5 382ZM689 821L547.5 782L689 821ZM420 299.5L463.5 440L420 299.5Z" stroke="#2B2B2B" stroke-width="0.5"/>
<path d="M784.5 517C785.881 517 787 515.881 787 514.5C787 513.119 785.881 512 784.5 512C783.119 512 782 513.119 782 514.5C782 515.881 783.119 517 784.5 517Z" fill="#2B2B2B"/>
<path d="M669.5 537C670.881 537 672 535.881 672 534.5C672 533.119 670.881 532 669.5 532C668.119 532 667 533.119 667 534.5C667 535.881 668.119 537 669.5 537Z" fill="#2B2B2B"/>
<path d="M701.5 649C702.881 649 704 647.881 704 646.5C704 645.119 702.881 644 701.5 644C700.119 644 699 645.119 699 646.5C699 647.881 700.119 649 701.5 649Z" fill="#2B2B2B"/>
<path d="M765.5 771C766.881 771 768 769.881 768 768.5C768 767.119 766.881 766 765.5 766C764.119 766 763 767.119 763 768.5C763 769.881 764.119 771 765.5 771Z" fill="#2B2B2B"/>
<path d="M660 732.5C661.381 732.5 662.5 731.381 662.5 730C662.5 728.619 661.381 727.5 660 727.5C658.619 727.5 657.5 728.619 657.5 730C657.5 731.381 658.619 732.5 660 732.5Z" fill="#2B2B2B"/>
<path d="M554.5 671.5C555.881 671.5 557 670.381 557 669C557 667.619 555.881 666.5 554.5 666.5C553.119 666.5 552 667.619 552 669C552 670.381 553.119 671.5 554.5 671.5Z" fill="#2B2B2B"/>
<path d="M547.5 784.5C548.881 784.5 550 783.381 550 782C550 780.619 548.881 779.5 547.5 779.5C546.119 779.5 545 780.619 545 782C545 783.381 546.119 784.5 547.5 784.5Z" fill="#2B2B2B"/>
<path d="M420 702C421.381 702 422.5 700.881 422.5 699.5C422.5 698.119 421.381 697 420 697C418.619 697 417.5 698.119 417.5 699.5C417.5 700.881 418.619 702 420 702Z" fill="#2B2B2B"/>
<path d="M451 593.5C452.381 593.5 453.5 592.381 453.5 591C453.5 589.619 452.381 588.5 451 588.5C449.619 588.5 448.5 589.619 448.5 591C448.5 592.381 449.619 593.5 451 593.5Z" fill="#2B2B2B"/>
<path d="M463.5 442.5C464.881 442.5 466 441.381 466 440C466 438.619 464.881 437.5 463.5 437.5C462.119 437.5 461 438.619 461 440C461 441.381 462.119 442.5 463.5 442.5Z" fill="#2B2B2B"/>
<path d="M585 455C586.381 455 587.5 453.881 587.5 452.5C587.5 451.119 586.381 450 585 450C583.619 450 582.5 451.119 582.5 452.5C582.5 453.881 583.619 455 585 455Z" fill="#2B2B2B"/>
<path d="M689 423.5C690.381 423.5 691.5 422.381 691.5 421C691.5 419.619 690.381 418.5 689 418.5C687.619 418.5 686.5 419.619 686.5 421C686.5 422.381 687.619 423.5 689 423.5Z" fill="#2B2B2B"/>
<path d="M518.5 533C519.881 533 521 531.881 521 530.5C521 529.119 519.881 528 518.5 528C517.119 528 516 529.119 516 530.5C516 531.881 517.119 533 518.5 533Z" fill="#2B2B2B"/>
<path d="M595 593.5C596.381 593.5 597.5 592.381 597.5 591C597.5 589.619 596.381 588.5 595 588.5C593.619 588.5 592.5 589.619 592.5 591C592.5 592.381 593.619 593.5 595 593.5Z" fill="#2B2B2B"/>
</g>
<g clip-path="url(#clip4_30_1128)">
<path d="M1200 0H800V400H1200V0Z" fill="#151515"/>
<path d="M1263.5 440L1165.5 368.5L1060 330L954.5 269L820 299.5L947.5 382L863.25 439.75L820 299.5L701.5 246.5L851 191L784.5 114.5L863.25 39.75L765.5 -31.5M1184.5 114.5L1318.5 130.45L1184.5 114.5Z" stroke="#2B2B2B" stroke-width="0.5"/>
<path d="M985 452.5L947.5 382M784.5 114.5L918.5 130.5L995 191L1101.5 246.5L954.25 268.75L850.75 190.75L784.5 114.5Z" stroke="#2B2B2B" stroke-width="0.5"/>
<path d="M1060 330L1089 421L1165.5 368.5L1220 299.5L1101.5 246.5L1060 330ZM1060 330L947.5 382L954.5 269L995 191L1069.5 134.5L1184.5 114.5L1088.75 20.75L985 52.5L947.5 -18L863.25 39.75L918.5 130.5L851 191L820 299.5L765.5 368.5L863.5 440" stroke="#2B2B2B" stroke-width="0.5"/>
<path d="M995 191H851M1060 -70L1089.25 21.25L1165.5 -31.5L1060 -70ZM1101.5 246.5L1069.5 134.5L918.5 130.5L985 52.5L1101.5 246.5ZM1251 191L1069.5 134.5L1251 191Z" stroke="#2B2B2B" stroke-width="0.5"/>
<path d="M851 191L669.5 134.5M689 21L863.25 39.75L985 52.5L1069.5 134.5L1088.75 20.75L1263.5 40L1184.5 114.5L1251 191L1101.5 246.5L1165.5 368.5L689 21ZM947.5 -18L1088.75 20.75L947.5 -18ZM1089 421L947.5 382L1089 421ZM820 -100.5L863.5 40L820 -100.5Z" stroke="#2B2B2B" stroke-width="0.5"/>
<path d="M1184.5 117C1185.88 117 1187 115.881 1187 114.5C1187 113.119 1185.88 112 1184.5 112C1183.12 112 1182 113.119 1182 114.5C1182 115.881 1183.12 117 1184.5 117Z" fill="#2B2B2B"/>
<path d="M1069.5 137C1070.88 137 1072 135.881 1072 134.5C1072 133.119 1070.88 132 1069.5 132C1068.12 132 1067 133.119 1067 134.5C1067 135.881 1068.12 137 1069.5 137Z" fill="#2B2B2B"/>
<path d="M1101.5 249C1102.88 249 1104 247.881 1104 246.5C1104 245.119 1102.88 244 1101.5 244C1100.12 244 1099 245.119 1099 246.5C1099 247.881 1100.12 249 1101.5 249Z" fill="#2B2B2B"/>
<path d="M1165.5 371C1166.88 371 1168 369.881 1168 368.5C1168 367.119 1166.88 366 1165.5 366C1164.12 366 1163 367.119 1163 368.5C1163 369.881 1164.12 371 1165.5 371Z" fill="#2B2B2B"/>
<path d="M1060 332.5C1061.38 332.5 1062.5 331.381 1062.5 330C1062.5 328.619 1061.38 327.5 1060 327.5C1058.62 327.5 1057.5 328.619 1057.5 330C1057.5 331.381 1058.62 332.5 1060 332.5Z" fill="#2B2B2B"/>
<path d="M954.5 271.5C955.881 271.5 957 270.381 957 269C957 267.619 955.881 266.5 954.5 266.5C953.119 266.5 952 267.619 952 269C952 270.381 953.119 271.5 954.5 271.5Z" fill="#2B2B2B"/>
<path d="M947.5 384.5C948.881 384.5 950 383.381 950 382C950 380.619 948.881 379.5 947.5 379.5C946.119 379.5 945 380.619 945 382C945 383.381 946.119 384.5 947.5 384.5Z" fill="#2B2B2B"/>
<path d="M820 302C821.381 302 822.5 300.881 822.5 299.5C822.5 298.119 821.381 297 820 297C818.619 297 817.5 298.119 817.5 299.5C817.5 300.881 818.619 302 820 302Z" fill="#2B2B2B"/>
<path d="M851 193.5C852.381 193.5 853.5 192.381 853.5 191C853.5 189.619 852.381 188.5 851 188.5C849.619 188.5 848.5 189.619 848.5 191C848.5 192.381 849.619 193.5 851 193.5Z" fill="#2B2B2B"/>
<path d="M863.5 42.5C864.881 42.5 866 41.3807 866 40C866 38.6193 864.881 37.5 863.5 37.5C862.119 37.5 861 38.6193 861 40C861 41.3807 862.119 42.5 863.5 42.5Z" fill="#2B2B2B"/>
<path d="M985 55C986.381 55 987.5 53.8807 987.5 52.5C987.5 51.1193 986.381 50 985 50C983.619 50 982.5 51.1193 982.5 52.5C982.5 53.8807 983.619 55 985 55Z" fill="#2B2B2B"/>
<path d="M1089 23.5C1090.38 23.5 1091.5 22.3807 1091.5 21C1091.5 19.6193 1090.38 18.5 1089 18.5C1087.62 18.5 1086.5 19.6193 1086.5 21C1086.5 22.3807 1087.62 23.5 1089 23.5Z" fill="#2B2B2B"/>
<path d="M918.5 133C919.881 133 921 131.881 921 130.5C921 129.119 919.881 128 918.5 128C917.119 128 916 129.119 916 130.5C916 131.881 917.119 133 918.5 133Z" fill="#2B2B2B"/>
<path d="M995 193.5C996.381 193.5 997.5 192.381 997.5 191C997.5 189.619 996.381 188.5 995 188.5C993.619 188.5 992.5 189.619 992.5 191C992.5 192.381 993.619 193.5 995 193.5Z" fill="#2B2B2B"/>
</g>
<g clip-path="url(#clip5_30_1128)">
<path d="M1200 400H800V800H1200V400Z" fill="#151515"/>
<path d="M1263.5 840L1165.5 768.5L1060 730L954.5 669L820 699.5L947.5 782L863.25 839.75L820 699.5L701.5 646.5L851 591L784.5 514.5L863.25 439.75L765.5 368.5M1184.5 514.5L1318.5 530.45L1184.5 514.5Z" stroke="#2B2B2B" stroke-width="0.5"/>
<path d="M985 852.5L947.5 782M784.5 514.5L918.5 530.5L995 591L1101.5 646.5L954.25 668.75L850.75 590.75L784.5 514.5Z" stroke="#2B2B2B" stroke-width="0.5"/>
<path d="M1060 730L1089 821L1165.5 768.5L1220 699.5L1101.5 646.5L1060 730ZM1060 730L947.5 782L954.5 669L995 591L1069.5 534.5L1184.5 514.5L1088.75 420.75L985 452.5L947.5 382L863.25 439.75L918.5 530.5L851 591L820 699.5L765.5 768.5L863.5 840" stroke="#2B2B2B" stroke-width="0.5"/>
<path d="M995 591H851M1060 330L1089.25 421.25L1165.5 368.5L1060 330ZM1101.5 646.5L1069.5 534.5L918.5 530.5L985 452.5L1101.5 646.5ZM1251 591L1069.5 534.5L1251 591Z" stroke="#2B2B2B" stroke-width="0.5"/>
<path d="M851 591L669.5 534.5M689 421L863.25 439.75L985 452.5L1069.5 534.5L1088.75 420.75L1263.5 440L1184.5 514.5L1251 591L1101.5 646.5L1165.5 768.5L689 421ZM947.5 382L1088.75 420.75L947.5 382ZM1089 821L947.5 782L1089 821ZM820 299.5L863.5 440L820 299.5Z" stroke="#2B2B2B" stroke-width="0.5"/>
<path d="M1184.5 517C1185.88 517 1187 515.881 1187 514.5C1187 513.119 1185.88 512 1184.5 512C1183.12 512 1182 513.119 1182 514.5C1182 515.881 1183.12 517 1184.5 517Z" fill="#2B2B2B"/>
<path d="M1069.5 537C1070.88 537 1072 535.881 1072 534.5C1072 533.119 1070.88 532 1069.5 532C1068.12 532 1067 533.119 1067 534.5C1067 535.881 1068.12 537 1069.5 537Z" fill="#2B2B2B"/>
<path d="M1101.5 649C1102.88 649 1104 647.881 1104 646.5C1104 645.119 1102.88 644 1101.5 644C1100.12 644 1099 645.119 1099 646.5C1099 647.881 1100.12 649 1101.5 649Z" fill="#2B2B2B"/>
<path d="M1165.5 771C1166.88 771 1168 769.881 1168 768.5C1168 767.119 1166.88 766 1165.5 766C1164.12 766 1163 767.119 1163 768.5C1163 769.881 1164.12 771 1165.5 771Z" fill="#2B2B2B"/>
<path d="M1060 732.5C1061.38 732.5 1062.5 731.381 1062.5 730C1062.5 728.619 1061.38 727.5 1060 727.5C1058.62 727.5 1057.5 728.619 1057.5 730C1057.5 731.381 1058.62 732.5 1060 732.5Z" fill="#2B2B2B"/>
<path d="M954.5 671.5C955.881 671.5 957 670.381 957 669C957 667.619 955.881 666.5 954.5 666.5C953.119 666.5 952 667.619 952 669C952 670.381 953.119 671.5 954.5 671.5Z" fill="#2B2B2B"/>
<path d="M947.5 784.5C948.881 784.5 950 783.381 950 782C950 780.619 948.881 779.5 947.5 779.5C946.119 779.5 945 780.619 945 782C945 783.381 946.119 784.5 947.5 784.5Z" fill="#2B2B2B"/>
<path d="M820 702C821.381 702 822.5 700.881 822.5 699.5C822.5 698.119 821.381 697 820 697C818.619 697 817.5 698.119 817.5 699.5C817.5 700.881 818.619 702 820 702Z" fill="#2B2B2B"/>
<path d="M851 593.5C852.381 593.5 853.5 592.381 853.5 591C853.5 589.619 852.381 588.5 851 588.5C849.619 588.5 848.5 589.619 848.5 591C848.5 592.381 849.619 593.5 851 593.5Z" fill="#2B2B2B"/>
<path d="M863.5 442.5C864.881 442.5 866 441.381 866 440C866 438.619 864.881 437.5 863.5 437.5C862.119 437.5 861 438.619 861 440C861 441.381 862.119 442.5 863.5 442.5Z" fill="#2B2B2B"/>
<path d="M985 455C986.381 455 987.5 453.881 987.5 452.5C987.5 451.119 986.381 450 985 450C983.619 450 982.5 451.119 982.5 452.5C982.5 453.881 983.619 455 985 455Z" fill="#2B2B2B"/>
<path d="M1089 423.5C1090.38 423.5 1091.5 422.381 1091.5 421C1091.5 419.619 1090.38 418.5 1089 418.5C1087.62 418.5 1086.5 419.619 1086.5 421C1086.5 422.381 1087.62 423.5 1089 423.5Z" fill="#2B2B2B"/>
<path d="M918.5 533C919.881 533 921 531.881 921 530.5C921 529.119 919.881 528 918.5 528C917.119 528 916 529.119 916 530.5C916 531.881 917.119 533 918.5 533Z" fill="#2B2B2B"/>
<path d="M995 593.5C996.381 593.5 997.5 592.381 997.5 591C997.5 589.619 996.381 588.5 995 588.5C993.619 588.5 992.5 589.619 992.5 591C992.5 592.381 993.619 593.5 995 593.5Z" fill="#2B2B2B"/>
</g>
<g clip-path="url(#clip6_30_1128)">
<path d="M400 800H0V1200H400V800Z" fill="#151515"/>
<path d="M463.5 1240L365.5 1168.5L260 1130L154.5 1069L20 1099.5L147.5 1182L63.25 1239.75L20 1099.5L-98.5 1046.5L51 991L-15.5 914.5L63.25 839.75L-34.5 768.5M384.5 914.5L518.5 930.45L384.5 914.5Z" stroke="#2B2B2B" stroke-width="0.5"/>
<path d="M185 1252.5L147.5 1182M-15.5 914.5L118.5 930.5L195 991L301.5 1046.5L154.25 1068.75L50.75 990.75L-15.5 914.5Z" stroke="#2B2B2B" stroke-width="0.5"/>
<path d="M260 1130L289 1221L365.5 1168.5L420 1099.5L301.5 1046.5L260 1130ZM260 1130L147.5 1182L154.5 1069L195 991L269.5 934.5L384.5 914.5L288.75 820.75L185 852.5L147.5 782L63.25 839.75L118.5 930.5L51 991L20 1099.5L-34.5 1168.5L63.5 1240" stroke="#2B2B2B" stroke-width="0.5"/>
<path d="M195 991H51M260 730L289.25 821.25L365.5 768.5L260 730ZM301.5 1046.5L269.5 934.5L118.5 930.5L185 852.5L301.5 1046.5ZM451 991L269.5 934.5L451 991Z" stroke="#2B2B2B" stroke-width="0.5"/>
<path d="M51 991L-130.5 934.5M-111 821L63.25 839.75L185 852.5L269.5 934.5L288.75 820.75L463.5 840L384.5 914.5L451 991L301.5 1046.5L365.5 1168.5L-111 821ZM147.5 782L288.75 820.75L147.5 782ZM289 1221L147.5 1182L289 1221ZM20 699.5L63.5 840L20 699.5Z" stroke="#2B2B2B" stroke-width="0.5"/>
<path d="M384.5 917C385.881 917 387 915.881 387 914.5C387 913.119 385.881 912 384.5 912C383.119 912 382 913.119 382 914.5C382 915.881 383.119 917 384.5 917Z" fill="#2B2B2B"/>
<path d="M269.5 937C270.881 937 272 935.881 272 934.5C272 933.119 270.881 932 269.5 932C268.119 932 267 933.119 267 934.5C267 935.881 268.119 937 269.5 937Z" fill="#2B2B2B"/>
<path d="M63.5 842.5C64.8807 842.5 66 841.381 66 840C66 838.619 64.8807 837.5 63.5 837.5C62.1193 837.5 61 838.619 61 840C61 841.381 62.1193 842.5 63.5 842.5Z" fill="#2B2B2B"/>
<path d="M185 855C186.381 855 187.5 853.881 187.5 852.5C187.5 851.119 186.381 850 185 850C183.619 850 182.5 851.119 182.5 852.5C182.5 853.881 183.619 855 185 855Z" fill="#2B2B2B"/>
<path d="M289 823.5C290.381 823.5 291.5 822.381 291.5 821C291.5 819.619 290.381 818.5 289 818.5C287.619 818.5 286.5 819.619 286.5 821C286.5 822.381 287.619 823.5 289 823.5Z" fill="#2B2B2B"/>
<path d="M118.5 933C119.881 933 121 931.881 121 930.5C121 929.119 119.881 928 118.5 928C117.119 928 116 929.119 116 930.5C116 931.881 117.119 933 118.5 933Z" fill="#2B2B2B"/>
</g>
<g clip-path="url(#clip7_30_1128)">
<path d="M800 800H400V1200H800V800Z" fill="#151515"/>
<path d="M863.5 1240L765.5 1168.5L660 1130L554.5 1069L420 1099.5L547.5 1182L463.25 1239.75L420 1099.5L301.5 1046.5L451 991L384.5 914.5L463.25 839.75L365.5 768.5M784.5 914.5L918.5 930.45L784.5 914.5Z" stroke="#2B2B2B" stroke-width="0.5"/>
<path d="M585 1252.5L547.5 1182M384.5 914.5L518.5 930.5L595 991L701.5 1046.5L554.25 1068.75L450.75 990.75L384.5 914.5Z" stroke="#2B2B2B" stroke-width="0.5"/>
<path d="M660 1130L689 1221L765.5 1168.5L820 1099.5L701.5 1046.5L660 1130ZM660 1130L547.5 1182L554.5 1069L595 991L669.5 934.5L784.5 914.5L688.75 820.75L585 852.5L547.5 782L463.25 839.75L518.5 930.5L451 991L420 1099.5L365.5 1168.5L463.5 1240" stroke="#2B2B2B" stroke-width="0.5"/>
<path d="M595 991H451M660 730L689.25 821.25L765.5 768.5L660 730ZM701.5 1046.5L669.5 934.5L518.5 930.5L585 852.5L701.5 1046.5ZM851 991L669.5 934.5L851 991Z" stroke="#2B2B2B" stroke-width="0.5"/>
<path d="M451 991L269.5 934.5M289 821L463.25 839.75L585 852.5L669.5 934.5L688.75 820.75L863.5 840L784.5 914.5L851 991L701.5 1046.5L765.5 1168.5L289 821ZM547.5 782L688.75 820.75L547.5 782ZM689 1221L547.5 1182L689 1221ZM420 699.5L463.5 840L420 699.5Z" stroke="#2B2B2B" stroke-width="0.5"/>
<path d="M784.5 917C785.881 917 787 915.881 787 914.5C787 913.119 785.881 912 784.5 912C783.119 912 782 913.119 782 914.5C782 915.881 783.119 917 784.5 917Z" fill="#2B2B2B"/>
<path d="M669.5 937C670.881 937 672 935.881 672 934.5C672 933.119 670.881 932 669.5 932C668.119 932 667 933.119 667 934.5C667 935.881 668.119 937 669.5 937Z" fill="#2B2B2B"/>
<path d="M463.5 842.5C464.881 842.5 466 841.381 466 840C466 838.619 464.881 837.5 463.5 837.5C462.119 837.5 461 838.619 461 840C461 841.381 462.119 842.5 463.5 842.5Z" fill="#2B2B2B"/>
<path d="M585 855C586.381 855 587.5 853.881 587.5 852.5C587.5 851.119 586.381 850 585 850C583.619 850 582.5 851.119 582.5 852.5C582.5 853.881 583.619 855 585 855Z" fill="#2B2B2B"/>
<path d="M689 823.5C690.381 823.5 691.5 822.381 691.5 821C691.5 819.619 690.381 818.5 689 818.5C687.619 818.5 686.5 819.619 686.5 821C686.5 822.381 687.619 823.5 689 823.5Z" fill="#2B2B2B"/>
<path d="M518.5 933C519.881 933 521 931.881 521 930.5C521 929.119 519.881 928 518.5 928C517.119 928 516 929.119 516 930.5C516 931.881 517.119 933 518.5 933Z" fill="#2B2B2B"/>
</g>
<g clip-path="url(#clip8_30_1128)">
<path d="M1200 800H800V1200H1200V800Z" fill="#151515"/>
<path d="M1263.5 1240L1165.5 1168.5L1060 1130L954.5 1069L820 1099.5L947.5 1182L863.25 1239.75L820 1099.5L701.5 1046.5L851 991L784.5 914.5L863.25 839.75L765.5 768.5M1184.5 914.5L1318.5 930.45L1184.5 914.5Z" stroke="#2B2B2B" stroke-width="0.5"/>
<path d="M985 1252.5L947.5 1182M784.5 914.5L918.5 930.5L995 991L1101.5 1046.5L954.25 1068.75L850.75 990.75L784.5 914.5Z" stroke="#2B2B2B" stroke-width="0.5"/>
<path d="M1060 1130L1089 1221L1165.5 1168.5L1220 1099.5L1101.5 1046.5L1060 1130ZM1060 1130L947.5 1182L954.5 1069L995 991L1069.5 934.5L1184.5 914.5L1088.75 820.75L985 852.5L947.5 782L863.25 839.75L918.5 930.5L851 991L820 1099.5L765.5 1168.5L863.5 1240" stroke="#2B2B2B" stroke-width="0.5"/>
<path d="M995 991H851M1060 730L1089.25 821.25L1165.5 768.5L1060 730ZM1101.5 1046.5L1069.5 934.5L918.5 930.5L985 852.5L1101.5 1046.5ZM1251 991L1069.5 934.5L1251 991Z" stroke="#2B2B2B" stroke-width="0.5"/>
<path d="M851 991L669.5 934.5M689 821L863.25 839.75L985 852.5L1069.5 934.5L1088.75 820.75L1263.5 840L1184.5 914.5L1251 991L1101.5 1046.5L1165.5 1168.5L689 821ZM947.5 782L1088.75 820.75L947.5 782ZM1089 1221L947.5 1182L1089 1221ZM820 699.5L863.5 840L820 699.5Z" stroke="#2B2B2B" stroke-width="0.5"/>
<path d="M1184.5 917C1185.88 917 1187 915.881 1187 914.5C1187 913.119 1185.88 912 1184.5 912C1183.12 912 1182 913.119 1182 914.5C1182 915.881 1183.12 917 1184.5 917Z" fill="#2B2B2B"/>
<path d="M1069.5 937C1070.88 937 1072 935.881 1072 934.5C1072 933.119 1070.88 932 1069.5 932C1068.12 932 1067 933.119 1067 934.5C1067 935.881 1068.12 937 1069.5 937Z" fill="#2B2B2B"/>
<path d="M863.5 842.5C864.881 842.5 866 841.381 866 840C866 838.619 864.881 837.5 863.5 837.5C862.119 837.5 861 838.619 861 840C861 841.381 862.119 842.5 863.5 842.5Z" fill="#2B2B2B"/>
<path d="M985 855C986.381 855 987.5 853.881 987.5 852.5C987.5 851.119 986.381 850 985 850C983.619 850 982.5 851.119 982.5 852.5C982.5 853.881 983.619 855 985 855Z" fill="#2B2B2B"/>
<path d="M1089 823.5C1090.38 823.5 1091.5 822.381 1091.5 821C1091.5 819.619 1090.38 818.5 1089 818.5C1087.62 818.5 1086.5 819.619 1086.5 821C1086.5 822.381 1087.62 823.5 1089 823.5Z" fill="#2B2B2B"/>
<path d="M918.5 933C919.881 933 921 931.881 921 930.5C921 929.119 919.881 928 918.5 928C917.119 928 916 929.119 916 930.5C916 931.881 917.119 933 918.5 933Z" fill="#2B2B2B"/>
</g>
<g clip-path="url(#clip9_30_1128)">
<path d="M1599 0H1199V400H1599V0Z" fill="#151515"/>
<path d="M1662.5 440L1564.5 368.5L1459 330L1353.5 269L1219 299.5L1346.5 382L1262.25 439.75L1219 299.5L1100.5 246.5L1250 191L1183.5 114.5L1262.25 39.75L1164.5 -31.5M1583.5 114.5L1717.5 130.45L1583.5 114.5Z" stroke="#2B2B2B" stroke-width="0.5"/>
<path d="M1384 452.5L1346.5 382M1183.5 114.5L1317.5 130.5L1394 191L1500.5 246.5L1353.25 268.75L1249.75 190.75L1183.5 114.5Z" stroke="#2B2B2B" stroke-width="0.5"/>
<path d="M1459 330L1488 421L1564.5 368.5L1619 299.5L1500.5 246.5L1459 330ZM1459 330L1346.5 382L1353.5 269L1394 191L1468.5 134.5L1583.5 114.5L1487.75 20.75L1384 52.5L1346.5 -18L1262.25 39.75L1317.5 130.5L1250 191L1219 299.5L1164.5 368.5L1262.5 440" stroke="#2B2B2B" stroke-width="0.5"/>
<path d="M1394 191H1250M1459 -70L1488.25 21.25L1564.5 -31.5L1459 -70ZM1500.5 246.5L1468.5 134.5L1317.5 130.5L1384 52.5L1500.5 246.5ZM1650 191L1468.5 134.5L1650 191Z" stroke="#2B2B2B" stroke-width="0.5"/>
<path d="M1250 191L1068.5 134.5M1088 21L1262.25 39.75L1384 52.5L1468.5 134.5L1487.75 20.75L1662.5 40L1583.5 114.5L1650 191L1500.5 246.5L1564.5 368.5L1088 21ZM1346.5 -18L1487.75 20.75L1346.5 -18ZM1488 421L1346.5 382L1488 421ZM1219 -100.5L1262.5 40L1219 -100.5Z" stroke="#2B2B2B" stroke-width="0.5"/>
<path d="M1353.5 271.5C1354.88 271.5 1356 270.381 1356 269C1356 267.619 1354.88 266.5 1353.5 266.5C1352.12 266.5 1351 267.619 1351 269C1351 270.381 1352.12 271.5 1353.5 271.5Z" fill="#2B2B2B"/>
<path d="M1346.5 384.5C1347.88 384.5 1349 383.381 1349 382C1349 380.619 1347.88 379.5 1346.5 379.5C1345.12 379.5 1344 380.619 1344 382C1344 383.381 1345.12 384.5 1346.5 384.5Z" fill="#2B2B2B"/>
<path d="M1219 302C1220.38 302 1221.5 300.881 1221.5 299.5C1221.5 298.119 1220.38 297 1219 297C1217.62 297 1216.5 298.119 1216.5 299.5C1216.5 300.881 1217.62 302 1219 302Z" fill="#2B2B2B"/>
<path d="M1250 193.5C1251.38 193.5 1252.5 192.381 1252.5 191C1252.5 189.619 1251.38 188.5 1250 188.5C1248.62 188.5 1247.5 189.619 1247.5 191C1247.5 192.381 1248.62 193.5 1250 193.5Z" fill="#2B2B2B"/>
<path d="M1262.5 42.5C1263.88 42.5 1265 41.3807 1265 40C1265 38.6193 1263.88 37.5 1262.5 37.5C1261.12 37.5 1260 38.6193 1260 40C1260 41.3807 1261.12 42.5 1262.5 42.5Z" fill="#2B2B2B"/>
<path d="M1384 55C1385.38 55 1386.5 53.8807 1386.5 52.5C1386.5 51.1193 1385.38 50 1384 50C1382.62 50 1381.5 51.1193 1381.5 52.5C1381.5 53.8807 1382.62 55 1384 55Z" fill="#2B2B2B"/>
<path d="M1317.5 133C1318.88 133 1320 131.881 1320 130.5C1320 129.119 1318.88 128 1317.5 128C1316.12 128 1315 129.119 1315 130.5C1315 131.881 1316.12 133 1317.5 133Z" fill="#2B2B2B"/>
<path d="M1394 193.5C1395.38 193.5 1396.5 192.381 1396.5 191C1396.5 189.619 1395.38 188.5 1394 188.5C1392.62 188.5 1391.5 189.619 1391.5 191C1391.5 192.381 1392.62 193.5 1394 193.5Z" fill="#2B2B2B"/>
</g>
<g clip-path="url(#clip10_30_1128)">
<path d="M1599 400H1199V800H1599V400Z" fill="#151515"/>
<path d="M1662.5 840L1564.5 768.5L1459 730L1353.5 669L1219 699.5L1346.5 782L1262.25 839.75L1219 699.5L1100.5 646.5L1250 591L1183.5 514.5L1262.25 439.75L1164.5 368.5M1583.5 514.5L1717.5 530.45L1583.5 514.5Z" stroke="#2B2B2B" stroke-width="0.5"/>
<path d="M1384 852.5L1346.5 782M1183.5 514.5L1317.5 530.5L1394 591L1500.5 646.5L1353.25 668.75L1249.75 590.75L1183.5 514.5Z" stroke="#2B2B2B" stroke-width="0.5"/>
<path d="M1459 730L1488 821L1564.5 768.5L1619 699.5L1500.5 646.5L1459 730ZM1459 730L1346.5 782L1353.5 669L1394 591L1468.5 534.5L1583.5 514.5L1487.75 420.75L1384 452.5L1346.5 382L1262.25 439.75L1317.5 530.5L1250 591L1219 699.5L1164.5 768.5L1262.5 840" stroke="#2B2B2B" stroke-width="0.5"/>
<path d="M1394 591H1250M1459 330L1488.25 421.25L1564.5 368.5L1459 330ZM1500.5 646.5L1468.5 534.5L1317.5 530.5L1384 452.5L1500.5 646.5ZM1650 591L1468.5 534.5L1650 591Z" stroke="#2B2B2B" stroke-width="0.5"/>
<path d="M1250 591L1068.5 534.5M1088 421L1262.25 439.75L1384 452.5L1468.5 534.5L1487.75 420.75L1662.5 440L1583.5 514.5L1650 591L1500.5 646.5L1564.5 768.5L1088 421ZM1346.5 382L1487.75 420.75L1346.5 382ZM1488 821L1346.5 782L1488 821ZM1219 299.5L1262.5 440L1219 299.5Z" stroke="#2B2B2B" stroke-width="0.5"/>
<path d="M1353.5 671.5C1354.88 671.5 1356 670.381 1356 669C1356 667.619 1354.88 666.5 1353.5 666.5C1352.12 666.5 1351 667.619 1351 669C1351 670.381 1352.12 671.5 1353.5 671.5Z" fill="#2B2B2B"/>
<path d="M1346.5 784.5C1347.88 784.5 1349 783.381 1349 782C1349 780.619 1347.88 779.5 1346.5 779.5C1345.12 779.5 1344 780.619 1344 782C1344 783.381 1345.12 784.5 1346.5 784.5Z" fill="#2B2B2B"/>
<path d="M1219 702C1220.38 702 1221.5 700.881 1221.5 699.5C1221.5 698.119 1220.38 697 1219 697C1217.62 697 1216.5 698.119 1216.5 699.5C1216.5 700.881 1217.62 702 1219 702Z" fill="#2B2B2B"/>
<path d="M1250 593.5C1251.38 593.5 1252.5 592.381 1252.5 591C1252.5 589.619 1251.38 588.5 1250 588.5C1248.62 588.5 1247.5 589.619 1247.5 591C1247.5 592.381 1248.62 593.5 1250 593.5Z" fill="#2B2B2B"/>
<path d="M1262.5 442.5C1263.88 442.5 1265 441.381 1265 440C1265 438.619 1263.88 437.5 1262.5 437.5C1261.12 437.5 1260 438.619 1260 440C1260 441.381 1261.12 442.5 1262.5 442.5Z" fill="#2B2B2B"/>
<path d="M1384 455C1385.38 455 1386.5 453.881 1386.5 452.5C1386.5 451.119 1385.38 450 1384 450C1382.62 450 1381.5 451.119 1381.5 452.5C1381.5 453.881 1382.62 455 1384 455Z" fill="#2B2B2B"/>
<path d="M1317.5 533C1318.88 533 1320 531.881 1320 530.5C1320 529.119 1318.88 528 1317.5 528C1316.12 528 1315 529.119 1315 530.5C1315 531.881 1316.12 533 1317.5 533Z" fill="#2B2B2B"/>
<path d="M1394 593.5C1395.38 593.5 1396.5 592.381 1396.5 591C1396.5 589.619 1395.38 588.5 1394 588.5C1392.62 588.5 1391.5 589.619 1391.5 591C1391.5 592.381 1392.62 593.5 1394 593.5Z" fill="#2B2B2B"/>
</g>
<g clip-path="url(#clip11_30_1128)">
<path d="M1599 800H1199V1200H1599V800Z" fill="#151515"/>
<path d="M1662.5 1240L1564.5 1168.5L1459 1130L1353.5 1069L1219 1099.5L1346.5 1182L1262.25 1239.75L1219 1099.5L1100.5 1046.5L1250 991L1183.5 914.5L1262.25 839.75L1164.5 768.5M1583.5 914.5L1717.5 930.45L1583.5 914.5Z" stroke="#2B2B2B" stroke-width="0.5"/>
<path d="M1384 1252.5L1346.5 1182M1183.5 914.5L1317.5 930.5L1394 991L1500.5 1046.5L1353.25 1068.75L1249.75 990.75L1183.5 914.5Z" stroke="#2B2B2B" stroke-width="0.5"/>
<path d="M1459 1130L1488 1221L1564.5 1168.5L1619 1099.5L1500.5 1046.5L1459 1130ZM1459 1130L1346.5 1182L1353.5 1069L1394 991L1468.5 934.5L1583.5 914.5L1487.75 820.75L1384 852.5L1346.5 782L1262.25 839.75L1317.5 930.5L1250 991L1219 1099.5L1164.5 1168.5L1262.5 1240" stroke="#2B2B2B" stroke-width="0.5"/>
<path d="M1394 991H1250M1459 730L1488.25 821.25L1564.5 768.5L1459 730ZM1500.5 1046.5L1468.5 934.5L1317.5 930.5L1384 852.5L1500.5 1046.5ZM1650 991L1468.5 934.5L1650 991Z" stroke="#2B2B2B" stroke-width="0.5"/>
<path d="M1250 991L1068.5 934.5M1088 821L1262.25 839.75L1384 852.5L1468.5 934.5L1487.75 820.75L1662.5 840L1583.5 914.5L1650 991L1500.5 1046.5L1564.5 1168.5L1088 821ZM1346.5 782L1487.75 820.75L1346.5 782ZM1488 1221L1346.5 1182L1488 1221ZM1219 699.5L1262.5 840L1219 699.5Z" stroke="#2B2B2B" stroke-width="0.5"/>
<path d="M1262.5 842.5C1263.88 842.5 1265 841.381 1265 840C1265 838.619 1263.88 837.5 1262.5 837.5C1261.12 837.5 1260 838.619 1260 840C1260 841.381 1261.12 842.5 1262.5 842.5Z" fill="#2B2B2B"/>
<path d="M1384 855C1385.38 855 1386.5 853.881 1386.5 852.5C1386.5 851.119 1385.38 850 1384 850C1382.62 850 1381.5 851.119 1381.5 852.5C1381.5 853.881 1382.62 855 1384 855Z" fill="#2B2B2B"/>
<path d="M1317.5 933C1318.88 933 1320 931.881 1320 930.5C1320 929.119 1318.88 928 1317.5 928C1316.12 928 1315 929.119 1315 930.5C1315 931.881 1316.12 933 1317.5 933Z" fill="#2B2B2B"/>
</g>
<defs>
<clipPath id="clip0_30_1128">
<rect width="400" height="400" fill="white"/>
</clipPath>
<clipPath id="clip1_30_1128">
<rect width="400" height="400" fill="white" transform="translate(0 400)"/>
</clipPath>
<clipPath id="clip2_30_1128">
<rect width="400" height="400" fill="white" transform="translate(400)"/>
</clipPath>
<clipPath id="clip3_30_1128">
<rect width="400" height="400" fill="white" transform="translate(400 400)"/>
</clipPath>
<clipPath id="clip4_30_1128">
<rect width="400" height="400" fill="white" transform="translate(800)"/>
</clipPath>
<clipPath id="clip5_30_1128">
<rect width="400" height="400" fill="white" transform="translate(800 400)"/>
</clipPath>
<clipPath id="clip6_30_1128">
<rect width="400" height="400" fill="white" transform="translate(0 800)"/>
</clipPath>
<clipPath id="clip7_30_1128">
<rect width="400" height="400" fill="white" transform="translate(400 800)"/>
</clipPath>
<clipPath id="clip8_30_1128">
<rect width="400" height="400" fill="white" transform="translate(800 800)"/>
</clipPath>
<clipPath id="clip9_30_1128">
<rect width="400" height="400" fill="white" transform="translate(1199)"/>
</clipPath>
<clipPath id="clip10_30_1128">
<rect width="400" height="400" fill="white" transform="translate(1199 400)"/>
</clipPath>
<clipPath id="clip11_30_1128">
<rect width="400" height="400" fill="white" transform="translate(1199 800)"/>
</clipPath>
</defs>
</svg>
